<?xml version="1.0" encoding="UTF-8" standalone="no"?>
<svg
   xmlns:dc="http://purl.org/dc/elements/1.1/"
   xmlns:cc="http://creativecommons.org/ns#"
   xmlns:rdf="http://www.w3.org/1999/02/22-rdf-syntax-ns#"
   xmlns:svg="http://www.w3.org/2000/svg"
   xmlns="http://www.w3.org/2000/svg"
   xmlns:sodipodi="http://sodipodi.sourceforge.net/DTD/sodipodi-0.dtd"
   xmlns:inkscape="http://www.inkscape.org/namespaces/inkscape"
   fill="#000000"
   height="24"
   viewBox="0 0 24 24"
   width="24"
   id="svg2"
   version="1.1"
   inkscape:version="0.91 r13725"
   sodipodi:docname="icon.svg"
   inkscape:export-filename="/home/mattias/StudioProjects/MegaCivilization/docs/icon_high_rez.png"
   inkscape:export-xdpi="1742.77"
   inkscape:export-ydpi="1742.77">
  <metadata
     id="metadata12">
    <rdf:RDF>
      <cc:Work
         rdf:about="">
        <dc:format>image/svg+xml</dc:format>
        <dc:type
           rdf:resource="http://purl.org/dc/dcmitype/StillImage" />
        <dc:title />
      </cc:Work>
    </rdf:RDF>
  </metadata>
  <defs
     id="defs10" />
  <sodipodi:namedview
     pagecolor="#ffffff"
     bordercolor="#666666"
     borderopacity="1"
     objecttolerance="10"
     gridtolerance="10"
     guidetolerance="10"
     inkscape:pageopacity="0"
     inkscape:pageshadow="2"
     inkscape:window-width="1320"
     inkscape:window-height="735"
     id="namedview8"
     showgrid="false"
     inkscape:zoom="9.8333333"
     inkscape:cx="-3.8764145"
     inkscape:cy="7.4043126"
     inkscape:window-x="62"
     inkscape:window-y="30"
     inkscape:window-maximized="0"
     inkscape:current-layer="svg2" />
  <path
     d="m 0,0 26.440678,0 0,26.440678 -26.440678,0 z"
     id="path4"
     inkscape:connector-curvature="0"
     style="fill:none" />
  <path
     d="m 20.164679,1.1137601 -16.329359,0 c -1.4968579,0 -2.7215599,1.224702 -2.7215599,2.7215599 l 0,16.329359 c 0,1.496858 1.224702,2.721561 2.7215599,2.721561 l 16.329359,0 c 1.496858,0 2.721561,-1.224703 2.721561,-2.721561 l 0,-16.329359 c 0,-1.4968579 -1.224703,-2.7215599 -2.721561,-2.7215599 z m 0,19.0509189 -16.329359,0 0,-16.3293591 16.329359,0 0,16.3293591 z"
     id="path6"
     inkscape:connector-curvature="0"
     style="fill:#000080;stroke-width:0.1;stroke-miterlimit:4;stroke-dasharray:none" />
  <g
     style="fill:#000000"
     id="g4199"
     transform="matrix(0.7609164,0,0,0.7609164,2.8690032,6.5720064)">
    <path
       id="path4189"
       d="M 0,0 24,0 24,24 0,24 Z"
       inkscape:connector-curvature="0"
       style="fill:none" />
    <path
       id="path4191"
       d="m 14,6 -3.75,5 2.85,3.8 -1.6,1.2 C 9.81,13.75 7,10 7,10 L 1,18 23,18 14,6 Z"
       inkscape:connector-curvature="0" />
  </g>
  <g
     style="fill:#000000"
     id="g4325"
     transform="matrix(0.59130518,0,0,0.59130518,3.8722413,3.7776511)">
    <path
       id="path4315"
       d="M 9,11.3 12.71,14 11.29,9.64 15,7 10.45,7 9,2.5 7.55,7 3,7 6.71,9.64 5.29,14 Z"
       inkscape:connector-curvature="0" />
    <path
       id="path4317"
       d="M 0,0 18,0 18,18 0,18 Z"
       inkscape:connector-curvature="0"
       style="fill:none" />
  </g>
</svg>
